<?xml version="1.0" encoding="UTF-8" standalone="no"?>
<!-- Created with Inkscape (http://www.inkscape.org/) -->

<svg
   width="207.02457mm"
   height="31.798536mm"
   viewBox="0 0 207.02457 31.798536"
   version="1.1"
   id="svg1"
   xmlns:inkscape="http://www.inkscape.org/namespaces/inkscape"
   xmlns:sodipodi="http://sodipodi.sourceforge.net/DTD/sodipodi-0.dtd"
   xmlns="http://www.w3.org/2000/svg"
   xmlns:svg="http://www.w3.org/2000/svg">
  <sodipodi:namedview
     id="namedview1"
     pagecolor="#ffffff"
     bordercolor="#000000"
     borderopacity="0.25"
     inkscape:showpageshadow="2"
     inkscape:pageopacity="0.0"
     inkscape:pagecheckerboard="0"
     inkscape:deskcolor="#d1d1d1"
     inkscape:document-units="mm" />
  <defs
     id="defs1" />
  <g
     inkscape:label="Layer 1"
     inkscape:groupmode="layer"
     id="layer1"
     transform="translate(-9.7305462,-133.18327)">
    <path
       d="m 34.178598,140.51979 v 17.46788 h -4.877033 v -17.46788 q 0,-0.51007 -0.195641,-0.95724 -0.202627,-0.44019 -0.531023,-0.77558 -0.335384,-0.32839 -0.775574,-0.51705 -0.447178,-0.18865 -0.957241,-0.18865 v 0 q -0.510062,0 -0.95724,0.18865 -0.44019,0.18866 -0.775574,0.51705 -0.328396,0.33539 -0.517049,0.77558 -0.188653,0.44717 -0.188653,0.95724 v 0 17.46788 h -4.897995 v -17.46788 q 0,-0.51007 -0.188654,-0.95724 -0.181666,-0.44019 -0.517049,-0.77558 -0.335383,-0.32839 -0.775574,-0.51705 -0.447178,-0.18865 -0.95724,-0.18865 v 0 q -0.510063,0 -0.95724,0.18865 -0.440191,0.18866 -0.775575,0.51705 -0.328396,0.33539 -0.517049,0.77558 -0.188653,0.44717 -0.188653,0.95724 v 0 17.46788 H 9.7305461 v -17.46788 q 0,-1.51622 0.5729459,-2.85775 0.572947,-1.34153 1.57211,-2.33371 0.999163,-0.99916 2.33371,-1.57211 1.341533,-0.57295 2.857746,-0.57295 v 0 q 1.362495,0 2.62717,0.48911 1.264675,0.48211 2.270825,1.40441 v 0 q 1.00615,-0.9223 2.256851,-1.40441 1.257687,-0.48911 2.620182,-0.48911 v 0 q 1.516213,0 2.857746,0.57295 1.341534,0.57295 2.33371,1.57211 0.999163,0.99218 1.57211,2.33371 0.572946,1.34153 0.572946,2.85775 z m 10.65541,24.46202 -2.382619,-0.0349 v -4.68838 l 2.592234,0.0349 q 0.677754,0 1.313585,-0.22359 0.628844,-0.22359 1.166855,-0.61487 0.538011,-0.39128 0.943266,-0.92929 0.412242,-0.53801 0.670766,-1.16685 v 0 q -0.768586,0.3214 -1.565122,0.64281 -0.789548,0.3284 -1.593071,0.3284 v 0 q -1.690892,0 -3.172168,-0.6009 -1.481277,-0.5939 -2.599222,-1.69787 -1.117944,-1.09699 -1.760762,-2.67608 -0.635831,-1.5791 -0.635831,-3.5355 v 0 -10.10343 h 4.63947 v 10.10343 q 0,0.97121 0.279486,1.69089 0.279486,0.72666 0.7616,1.21576 0.475126,0.48212 1.110957,0.72667 0.642819,0.23756 1.37647,0.23756 v 0 q 0.719677,0 1.355508,-0.33538 0.642818,-0.3284 1.117944,-0.88038 0.475127,-0.545 0.747626,-1.23673 0.279486,-0.68474 0.279486,-1.41839 v 0 -10.10343 h 4.68838 v 15.96565 q -0.02096,1.92845 -0.754612,3.61934 -0.726664,1.6909 -1.998326,2.94858 -1.271662,1.26468 -2.962554,1.99833 -1.690891,0.73365 -3.619346,0.73365 z m 11.941047,-24.11965 v 0 q 0,-1.51622 0.579934,-2.85076 0.579934,-1.32756 1.579097,-2.32672 0.999163,-0.99917 2.326722,-1.5791 1.334546,-0.57994 2.850759,-0.57994 v 0 H 75.33294 v 4.898 H 64.111567 q -0.510062,0 -0.95724,0.18865 -0.440191,0.18167 -0.775574,0.51705 -0.328397,0.33539 -0.51705,0.77558 -0.188653,0.44717 -0.188653,0.95724 v 0 q 0,0.51006 0.188653,0.96422 0.188653,0.44718 0.51705,0.78257 0.335383,0.33538 0.775574,0.52403 0.447178,0.18167 0.95724,0.18167 v 0 h 4.897997 q 1.516214,0 2.857748,0.57294 1.334546,0.57295 2.333709,1.57211 0.999163,0.99917 1.57211,2.33371 0.565959,1.34154 0.565959,2.85775 v 0 q 0,1.51621 -0.565959,2.85076 -0.572947,1.32756 -1.57211,2.32672 -0.999163,0.99916 -2.333709,1.5791 -1.341534,0.57993 -2.857748,0.57993 v 0 H 58.144537 v -4.89799 h 10.865027 q 0.510064,0 0.950254,-0.18866 0.447178,-0.18166 0.775575,-0.51705 0.335383,-0.33538 0.524036,-0.77557 0.188653,-0.44718 0.188653,-0.95724 v 0 q 0,-0.51006 -0.188653,-0.95724 -0.188653,-0.44019 -0.524036,-0.77557 -0.328397,-0.3284 -0.775575,-0.51705 -0.44019,-0.18866 -0.950254,-0.18866 v 0 h -4.897997 q -1.516213,0 -2.850759,-0.57993 -1.327559,-0.57993 -2.326722,-1.5791 -0.999163,-0.99916 -1.579097,-2.33371 -0.579934,-1.34153 -0.579934,-2.85774 z m 37.241538,17.12551 -1.53718,-2.13108 q -0.56596,0.51006 -1.20179,0.96423 -0.64282,0.44717 -1.34153,0.78256 -0.69872,0.33538 -1.43935,0.53102 -0.74064,0.19564 -1.50923,0.19564 v 0 q -1.69089,0 -3.172168,-0.6009 -1.488264,-0.5939 -2.606208,-1.69787 -1.117945,-1.09699 -1.753776,-2.67608 -0.642818,-1.5791 -0.642818,-3.5355 v 0 -10.10343 h 4.63947 v 10.10343 q 0,0.91532 0.286474,1.64198 0.279486,0.72666 0.754616,1.22275 0.48211,0.49609 1.11794,0.74763 0.64282,0.25852 1.37647,0.25852 v 0 q 0.71269,0 1.35551,-0.33538 0.63583,-0.3284 1.11794,-0.88038 0.47513,-0.545 0.74763,-1.23673 0.2725,-0.68474 0.2725,-1.41839 v 0 -10.10343 h 4.66043 v 18.27141 z m 9.362777,-1.22974 v 8.18894 h -4.695357 v -25.23061 h 1.12493 l 1.858577,2.20096 q 0.63583,-0.59391 1.38346,-1.12493 0.75461,-0.53103 1.56512,-0.91532 0.81051,-0.37731 1.67692,-0.6009 0.87339,-0.22359 1.76076,-0.22359 v 0 q 1.92147,0 3.61935,0.69173 1.69787,0.69173 2.96954,1.94942 1.27166,1.26467 2.00531,3.0464 0.73365,1.78172 0.73365,3.94774 v 0 q 0,2.25685 -0.73365,4.05255 -0.73365,1.80268 -2.00531,3.05338 -1.27167,1.25769 -2.96954,1.92147 -1.69788,0.66378 -3.61935,0.66378 v 0 q -0.61487,0 -1.22275,-0.13276 -0.60788,-0.13974 -1.19481,-0.37031 -0.58692,-0.23058 -1.15986,-0.51705 -0.57295,-0.29346 -1.09699,-0.6009 z m 9.32785,-8.07016 v 0 q 0,-1.15987 -0.36333,-2.07519 -0.37032,-0.9223 -0.99916,-1.56512 -0.63583,-0.63583 -1.48826,-0.9782 -0.85244,-0.34237 -1.80269,-0.34237 v 0 q -0.95724,0 -1.80269,0.34237 -0.84544,0.34237 -1.47429,0.9782 -0.63583,0.64282 -0.99916,1.56512 -0.37032,0.91532 -0.37032,2.07519 v 0 q 0,1.11096 0.37032,2.03326 0.36333,0.92231 0.99916,1.57211 0.62885,0.64282 1.47429,1.00615 0.84545,0.35635 1.80269,0.35635 v 0 q 0.95025,0 1.80269,-0.35635 0.85243,-0.36333 1.48826,-1.00615 0.62884,-0.6498 0.99916,-1.57211 0.36333,-0.9223 0.36333,-2.03326 z m 23.24627,-5.69453 -8.73395,10.52265 q 0.27949,0.0908 0.55199,0.1118 0.2725,0.028 0.545,0.028 v 0 q 0.67775,0 1.31358,-0.18866 0.62885,-0.18865 1.18083,-0.53801 0.55897,-0.34936 0.99218,-0.85243 0.4332,-0.50308 0.7057,-1.11795 v 0 l 3.41672,3.4307 q -0.64981,0.9223 -1.49525,1.65595 -0.84545,0.73365 -1.82365,1.24371 -0.98519,0.51007 -2.0682,0.77558 -1.08301,0.26551 -2.22191,0.26551 v 0 q -1.92846,0 -3.62634,-0.71968 -1.69787,-0.71269 -2.96954,-1.99133 -1.27166,-1.27865 -2.00531,-3.0464 -0.73365,-1.76775 -0.73365,-3.88486 v 0 q 0,-2.16602 0.73365,-3.95473 0.73365,-1.78871 2.00531,-3.05339 1.27167,-1.26467 2.96954,-1.96339 1.69788,-0.69871 3.62634,-0.69871 v 0 q 1.1389,0 2.23589,0.2725 1.08999,0.2725 2.06819,0.78955 0.98519,0.51006 1.83763,1.2507 0.85243,0.74063 1.49525,1.66294 z m -11.76637,8.11907 5.42203,-7.19677 q -0.32141,-0.11878 -0.63583,-0.15371 -0.31442,-0.0349 -0.65679,-0.0349 v 0 q -0.95724,0 -1.80269,0.34936 -0.84544,0.34936 -1.4673,0.99916 -0.62186,0.64981 -0.9782,1.55814 -0.35635,0.91531 -0.35635,2.05422 v 0 q 0,0.25852 0.021,0.57993 0.028,0.3284 0.0839,0.6568 0.0629,0.33538 0.14673,0.64281 0.0839,0.30744 0.22359,0.545 z m 18.76051,-3.18614 v 10.0615 h -4.65345 v -18.27141 h 1.12494 l 1.53717,2.16602 q 1.12493,-1.02012 2.5573,-1.5791 1.43236,-0.55198 2.96954,-0.55198 v 0 h 4.10844 v 4.63947 h -4.10844 q -0.73365,0 -1.38346,0.2725 -0.6498,0.2725 -1.12493,0.75461 -0.48211,0.47513 -0.75461,1.12493 -0.2725,0.64981 -0.2725,1.38346 z"
       fill="#03424c"
       data-fill-palette-color="primary"
       id="path1"
       inkscape:export-filename="MySuperLogoCorrect.svg"
       inkscape:export-xdpi="96"
       inkscape:export-ydpi="96"
       style="stroke-width:0.698715" />
    <path
       d="m 158.35648,148.21264 h 9.78901 v -4.89799 q 0,-1.00615 -0.3843,-1.90051 -0.38429,-0.89435 -1.04807,-1.55813 -0.66378,-0.66378 -1.56512,-1.04808 -0.89436,-0.38429 -1.90051,-0.38429 v 0 q -1.00615,0 -1.9005,0.38429 -0.89436,0.3843 -1.55814,1.04808 -0.67077,0.66378 -1.05506,1.55813 -0.37731,0.89436 -0.37731,1.90051 v 0 z m 14.687,-4.89799 v 14.67302 h -4.89799 v -4.89799 h -9.78901 v 4.89799 h -4.88402 v -14.67302 q 0,-2.02628 0.76859,-3.808 0.76859,-1.78173 2.08916,-3.11627 1.32057,-1.32756 3.10928,-2.09615 1.78173,-0.76859 3.808,-0.76859 v 0 q 2.03326,0 3.81499,0.76859 1.78172,0.76859 3.10928,2.09615 1.33455,1.33454 2.10313,3.11627 0.76859,1.78172 0.76859,3.808 z m 8.44048,13.44328 v 8.18894 h -4.69536 v -25.23061 h 1.13192 l 1.85858,2.20096 q 0.62884,-0.59391 1.37647,-1.12493 0.75461,-0.53103 1.56512,-0.91532 0.81051,-0.37731 1.67692,-0.6009 0.87339,-0.22359 1.76076,-0.22359 v 0 q 1.92845,0 3.62633,0.69173 1.69788,0.69173 2.96256,1.94942 1.27166,1.26467 2.00531,3.0464 0.73365,1.78172 0.73365,3.94774 v 0 q 0,2.25685 -0.73365,4.05255 -0.73365,1.80268 -2.00531,3.05338 -1.26468,1.25769 -2.96256,1.92147 -1.69788,0.66378 -3.62633,0.66378 v 0 q -0.61487,0 -1.22275,-0.13276 -0.6009,-0.13974 -1.19481,-0.37031 -0.58692,-0.23058 -1.15986,-0.51705 -0.56596,-0.29346 -1.09699,-0.6009 z m 9.32785,-8.07016 v 0 q 0,-1.15987 -0.36333,-2.07519 -0.37032,-0.9223 -0.99916,-1.56512 -0.62884,-0.63583 -1.48128,-0.9782 -0.85243,-0.34237 -1.80967,-0.34237 v 0 q -0.95724,0 -1.80269,0.34237 -0.84544,0.34237 -1.47429,0.9782 -0.62884,0.64282 -0.99916,1.56512 -0.36333,0.91532 -0.36333,2.07519 v 0 q 0,1.11096 0.36333,2.03326 0.37032,0.92231 0.99916,1.57211 0.62885,0.64282 1.47429,1.00615 0.84545,0.35635 1.80269,0.35635 v 0 q 0.95724,0 1.80967,-0.35635 0.85244,-0.36333 1.48128,-1.00615 0.62884,-0.6498 0.99916,-1.57211 0.36333,-0.9223 0.36333,-2.03326 z m 11.94105,8.07016 v 8.18894 h -4.68838 v -25.23061 h 1.12493 l 1.85859,2.20096 q 0.62884,-0.59391 1.38345,-1.12493 0.74763,-0.53103 1.55814,-0.91532 0.81051,-0.37731 1.6839,-0.6009 0.86641,-0.22359 1.75378,-0.22359 v 0 q 1.92845,0 3.62633,0.69173 1.69788,0.69173 2.96954,1.94942 1.26468,1.26467 1.99833,3.0464 0.73365,1.78172 0.73365,3.94774 v 0 q 0,2.25685 -0.73365,4.05255 -0.73365,1.80268 -1.99833,3.05338 -1.27166,1.25769 -2.96954,1.92147 -1.69788,0.66378 -3.62633,0.66378 v 0 q -0.61487,0 -1.22275,-0.13276 -0.6009,-0.13974 -1.18782,-0.37031 -0.59391,-0.23058 -1.15987,-0.51705 -0.57295,-0.29346 -1.10397,-0.6009 z m 9.32785,-8.07016 v 0 q 0,-1.15987 -0.36333,-2.07519 -0.36333,-0.9223 -0.99916,-1.56512 -0.62885,-0.63583 -1.48128,-0.9782 -0.85243,-0.34237 -1.80967,-0.34237 v 0 q -0.95724,0 -1.80269,0.34237 -0.83846,0.34237 -1.47429,0.9782 -0.62884,0.64282 -0.99916,1.56512 -0.36333,0.91532 -0.36333,2.07519 v 0 q 0,1.11096 0.36333,2.03326 0.37032,0.92231 0.99916,1.57211 0.63583,0.64282 1.47429,1.00615 0.84545,0.35635 1.80269,0.35635 v 0 q 0.95724,0 1.80967,-0.35635 0.85243,-0.36333 1.48128,-1.00615 0.63583,-0.6498 0.99916,-1.57211 0.36333,-0.9223 0.36333,-2.03326 z"
       fill="#ff9900"
       data-fill-palette-color="accent"
       id="path2"
       style="stroke-width:0.698715" />
  </g>
</svg>
