<svg xmlns="http://www.w3.org/2000/svg" xmlns:xlink="http://www.w3.org/1999/xlink" width="1920" zoomAndPan="magnify" viewBox="0 0 1440 809.999993" height="1080" preserveAspectRatio="xMidYMid meet" version="1.0"><defs><filter x="0%" y="0%" width="100%" height="100%" id="0b11c5e0ce"><feColorMatrix values="0 0 0 0 1 0 0 0 0 1 0 0 0 0 1 0 0 0 1 0" color-interpolation-filters="sRGB"/></filter><mask id="3b16d49e9a"><g filter="url(#0b11c5e0ce)"><rect x="-144" width="1728" fill="#000000" y="-80.999999" height="971.999992" fill-opacity="0.9"/></g></mask><clipPath id="11b347ba78"><path d="M 0 0 L 651.839844 0 L 651.839844 810 L 0 810 Z M 0 0 " clip-rule="nonzero"/></clipPath><clipPath id="0a138f0913"><path d="M -255.664062 49.855469 L 366.066406 -130.714844 L 651.621094 852.496094 L 29.890625 1033.066406 Z M -255.664062 49.855469 " clip-rule="nonzero"/></clipPath><clipPath id="f5ea031944"><path d="M -255.664062 49.855469 L 366.066406 -130.714844 L 651.621094 852.496094 L 29.890625 1033.066406 Z M -255.664062 49.855469 " clip-rule="nonzero"/></clipPath><clipPath id="25adb72438"><rect x="0" width="652" y="0" height="810"/></clipPath><mask id="3cbb3bd5e3"><g filter="url(#0b11c5e0ce)"><rect x="-144" width="1728" fill="#000000" y="-80.999999" height="971.999992" fill-opacity="0.85"/></g></mask><clipPath id="ff1a6db575"><path d="M 0 0 L 437.761719 0 L 437.761719 235.199219 L 0 235.199219 Z M 0 0 " clip-rule="nonzero"/></clipPath><clipPath id="47b07fcc6e"><path d="M -100.164062 9.730469 L 381.582031 -109.882812 L 437.523438 115.4375 L -44.222656 235.046875 Z M -100.164062 9.730469 " clip-rule="nonzero"/></clipPath><clipPath id="bd3f06d9c1"><path d="M -100.164062 9.730469 L 381.582031 -109.882812 L 437.523438 115.4375 L -44.222656 235.046875 Z M -100.164062 9.730469 " clip-rule="nonzero"/></clipPath><clipPath id="27190352f3"><rect x="0" width="438" y="0" height="236"/></clipPath></defs><g mask="url(#3b16d49e9a)"><g transform="matrix(1, 0, 0, 1, 0, 0.000000000000039746)"><g clip-path="url(#25adb72438)"><g clip-path="url(#11b347ba78)"><g clip-path="url(#0a138f0913)"><g clip-path="url(#f5ea031944)"><path fill="#ff9900" d="M -255.664062 49.855469 L 366.066406 -130.714844 L 651.621094 852.496094 L 29.890625 1033.066406 Z M -255.664062 49.855469 " fill-opacity="1" fill-rule="nonzero"/></g></g></g></g></g></g><g mask="url(#3cbb3bd5e3)"><g transform="matrix(1, 0, 0, 1, 0, 0.000000000000039746)"><g clip-path="url(#27190352f3)"><g clip-path="url(#ff1a6db575)"><g clip-path="url(#47b07fcc6e)"><g clip-path="url(#bd3f06d9c1)"><path fill="#ffffff" d="M -100.164062 9.730469 L 381.582031 -109.882812 L 437.523438 115.4375 L -44.222656 235.046875 Z M -100.164062 9.730469 " fill-opacity="1" fill-rule="nonzero"/></g></g></g></g></g></g></svg>